<svg class="re-svg-icon" viewBox="0 0 14 14" xmlns="http://www.w3.org/2000/svg" fill-rule="evenodd" clip-rule="evenodd" stroke-linejoin="round" stroke-miterlimit="1.414"><path d="M3.31 4.537v.574h2.016v1.318H3.31v5.244H1.594V6.429H0V5.111h1.594v-.457c0-.789.164-1.336.492-1.641.328-.304.937-.457 1.828-.457h1.412v1.318H3.984c-.258 0-.433.047-.525.141-.091.094-.141.268-.149.522zM6.283 1.827h1.701v.636h-.81v4.845h.81v.636H6.283V1.827zM13.5 1.827v6.114h-1.701v-.636h.81V2.463h-.81v-.636H13.5zM9.66 7.245h.9V2.559h-.894l-.97.232v.835l.964-.238v3.857z" fill-rule="nonzero"/></svg>
