<svg xmlns="http://www.w3.org/2000/svg" viewBox="0 0 75 75" stroke-linejoin="round" stroke-miterlimit="1.414">
  <circle cx="37.5" cy="37.5" r="37.5" fill="#e6cb8e"/>
  <path fill="#fff" fill-rule="nonzero" d="M25.597 29.046v2.114h7.422v4.854h-7.422v19.31h-6.321V36.015h-5.868v-4.854h5.868v-1.683c0-2.905.604-4.919 1.812-6.041 1.209-1.122 3.452-1.683 6.732-1.683h5.199v4.854h-4.941c-.949 0-1.593.173-1.931.518-.338.345-.521.985-.55 1.92zm10.949-9.976h6.263v2.342h-2.983v17.839h2.983v2.343h-6.263V19.07zm26.575 0v22.511h-6.263v-2.342h2.983V21.412h-2.983V19.07h6.263zM48.979 39.021h3.317V21.765h-3.294l-3.571.855v3.074l3.548-.878v14.205z"/>
</svg>
