<svg xmlns="http://www.w3.org/2000/svg" viewBox="0 0 20 20">
    <path
        d="M14.154 5.748c.287 0 .533-.084.739-.253.208-.168.313-.41.313-.724a.857.857 0 0 0-.248-.617c-.165-.174-.388-.261-.668-.261-.19 0-.348.026-.472.079a.76.76 0 0 0-.29.21c-.072.087-.14.2-.206.337-.062.137-.12.266-.172.388a.328.328 0 0 1-.169.154.662.662 0 0 1-.28.056.496.496 0 0 1-.346-.15.55.55 0 0 1-.154-.406c0-.162.048-.332.145-.51.1-.18.243-.352.43-.514.19-.162.425-.29.705-.387.28-.1.594-.15.94-.15.302 0 .577.042.827.126.249.081.465.2.65.355a1.544 1.544 0 0 1 .555 1.206c0 .311-.068.58-.205.804a2.678 2.678 0 0 1-.58.65c.243.13.447.28.612.448a1.7 1.7 0 0 1 .379.56 1.7 1.7 0 0 1 .126.66c0 .283-.058.557-.173.822a2.092 2.092 0 0 1-.5.71 2.441 2.441 0 0 1-.79.486 2.798 2.798 0 0 1-1.004.173 2.41 2.41 0 0 1-1.739-.7 2.391 2.391 0 0 1-.434-.627C12.048 8.458 12 8.28 12 8.14a.57.57 0 0 1 .173-.434.614.614 0 0 1 .44-.169c.086 0 .17.027.252.08.08.05.133.11.158.182.162.433.335.756.52.967.186.21.448.313.784.313a1.16 1.16 0 0 0 1-.565c.119-.187.178-.403.178-.65 0-.364-.1-.649-.3-.855-.199-.208-.476-.313-.831-.313-.063 0-.159.006-.29.019-.13.012-.215.019-.252.019-.172 0-.304-.042-.397-.127a.468.468 0 0 1-.14-.36c0-.149.056-.269.168-.36.112-.093.278-.14.5-.14h.191ZM5.818 17c-.287 0-.509-.078-.665-.235-.157-.156-.235-.385-.235-.685V8.703H3.744c-.235 0-.418-.059-.548-.176A.688.688 0 0 1 3 8.018c0-.222.065-.391.196-.509.13-.117.313-.176.548-.176h1.663l-.49.47v-.724c0-1.266.307-2.224.92-2.877.627-.665 1.54-1.05 2.74-1.154l.607-.04c.195-.025.352.007.47.099a.561.561 0 0 1 .234.313c.04.13.04.267 0 .41a.751.751 0 0 1-.176.353.512.512 0 0 1-.352.176l-.43.02c-.784.065-1.351.3-1.703.704-.352.391-.529.978-.529 1.761v.783l-.254-.294h2.25c.248 0 .437.059.568.176.13.118.196.287.196.51a.688.688 0 0 1-.196.508c-.13.117-.32.176-.568.176H6.698v7.377c0 .613-.293.92-.88.92Z"
    />
</svg>
