<svg xmlns="http://www.w3.org/2000/svg" viewBox="0 0 75 75">
    <path
        fill="#E6CB8E"
        d="M37.5 75C58.21 75 75 58.21 75 37.5S58.21 0 37.5 0 0 16.79 0 37.5 16.79 75 37.5 75Z"
    />
    <path
        fill="#fff"
        d="M48.276 26.458c.778 0 1.446-.228 2.004-.685.566-.457.85-1.112.85-1.966 0-.651-.225-1.21-.673-1.674-.448-.474-1.053-.71-1.813-.71-.516 0-.943.071-1.282.215a2.06 2.06 0 0 0-.786.57c-.194.238-.38.542-.558.914-.17.372-.325.723-.47 1.053-.084.177-.236.317-.456.418-.22.102-.473.153-.76.153-.34 0-.652-.136-.94-.406-.279-.28-.418-.647-.418-1.104 0-.44.131-.9.393-1.382.27-.49.66-.956 1.167-1.395.516-.44 1.154-.791 1.915-1.053C47.21 19.136 48.06 19 49 19c.82 0 1.568.114 2.245.343.676.22 1.264.54 1.763.963.498.423.875.914 1.129 1.472a4.3 4.3 0 0 1 .38 1.8c0 .846-.186 1.573-.558 2.182-.364.6-.888 1.188-1.573 1.763.66.355 1.214.761 1.662 1.218.456.457.799.964 1.027 1.522.228.55.343 1.146.343 1.788 0 .77-.157 1.514-.47 2.233a5.681 5.681 0 0 1-1.357 1.928 6.63 6.63 0 0 1-2.143 1.319c-.82.313-1.73.469-2.727.469-1.015 0-1.924-.182-2.727-.545-.804-.364-1.467-.816-1.992-1.358-.515-.55-.909-1.116-1.18-1.7-.261-.583-.392-1.065-.392-1.445 0-.49.156-.884.469-1.18.321-.304.719-.456 1.192-.456.237 0 .465.072.685.215.22.136.364.3.431.495.44 1.175.91 2.05 1.408 2.625.508.567 1.218.85 2.131.85a3.149 3.149 0 0 0 2.714-1.535c.322-.507.482-1.094.482-1.762 0-.99-.27-1.763-.812-2.322-.54-.566-1.293-.85-2.257-.85-.17 0-.431.018-.787.051-.355.034-.583.051-.684.051-.466 0-.825-.114-1.079-.342-.253-.237-.38-.563-.38-.977 0-.406.152-.731.456-.977.305-.253.757-.38 1.358-.38h.52ZM25.648 57c-.779 0-1.38-.212-1.805-.637-.425-.425-.638-1.045-.638-1.86V34.48h-3.187c-.637 0-1.133-.16-1.487-.478-.354-.354-.531-.815-.531-1.381 0-.602.177-1.063.531-1.381.354-.319.85-.478 1.487-.478h4.515l-1.328 1.274v-1.965c0-3.434.832-6.037 2.497-7.808 1.7-1.805 4.178-2.85 7.435-3.133l1.647-.106c.531-.071.956.017 1.275.265.318.213.53.496.637.85.106.354.106.726 0 1.115-.07.354-.23.673-.478.956a1.39 1.39 0 0 1-.956.479l-1.169.053c-2.124.177-3.664.814-4.62 1.912-.956 1.062-1.434 2.655-1.434 4.78v2.124l-.691-.796h6.108c.673 0 1.186.16 1.54.478.354.319.532.779.532 1.38 0 .567-.178 1.028-.532 1.382-.354.318-.867.478-1.54.478h-5.418v20.024c0 1.664-.796 2.496-2.39 2.496Z"
    />
</svg>
